HIERARCHY
ROOT Hips
{
	OFFSET	0	0	0
	CHANNELS 6  Xposition Yposition Zposition Xrotation Yrotation Zrotation
	JOINT Spine
	{
		OFFSET	0	6.43035	1.29592
		CHANNELS 3  Xrotation Yrotation Zrotation
		JOINT Spine1
		{
			OFFSET	0	11.0515	-1.97348
			CHANNELS 3  Xrotation Yrotation Zrotation
			JOINT Spine2
			{
				OFFSET	0	8.37743	0.897934
				CHANNELS 3  Xrotation Yrotation Zrotation
				JOINT Spine3
				{
					OFFSET	0	10.0253	2.97996
					CHANNELS 3  Xrotation Yrotation Zrotation
					JOINT Spine4
					{
						OFFSET	0	14.8406	-1.51958
						CHANNELS 3  Xrotation Yrotation Zrotation
						JOINT Neck
						{
							OFFSET	0	7.0848	-4.96331
							CHANNELS 3  Xrotation Yrotation Zrotation
							JOINT Head
							{
								OFFSET	0	8.50571	-2.54579
								CHANNELS 3  Xrotation Yrotation Zrotation
								End Site
								{
									OFFSET	0	17.7416	-0.858465
								}
							}
						}
					}
					JOINT LeftShoulder
					{
						OFFSET	-4.26272	18.0376	-8.50571
						CHANNELS 3  Xrotation Yrotation Zrotation
						JOINT LeftArm
						{
							OFFSET	-9.26857	-2.54579	3.26613
							CHANNELS 3  Xrotation Yrotation Zrotation
							JOINT LeftForeArm
							{
								OFFSET	-28.2392	-1.28889	2.01568
								CHANNELS 3  Xrotation Yrotation Zrotation
								JOINT LeftHand
								{
									OFFSET	-22.9751	-1.58771	1.63994
									CHANNELS 3  Xrotation Yrotation Zrotation
									End Site
									{
										OFFSET	-8.38477	-0.579434	0.598457
									}
								}
							}
						}
					}
					JOINT RightShoulder
					{
						OFFSET	4.26272	18.0376	-8.50571
						CHANNELS 3  Xrotation Yrotation Zrotation
						JOINT RightArm
						{
							OFFSET	9.26857	-2.54579	3.26613
							CHANNELS 3  Xrotation Yrotation Zrotation
							JOINT RightForeArm
							{
								OFFSET	28.2392	-1.28889	2.01568
								CHANNELS 3  Xrotation Yrotation Zrotation
								JOINT RightHand
								{
									OFFSET	22.9751	-1.58771	1.63994
									CHANNELS 3  Xrotation Yrotation Zrotation
									End Site
									{
										OFFSET	8.38477	-0.579434	0.598457
									}
								}
							}
						}
					}
				}
			}
		}
	}
	JOINT LeftUpLeg
	{
		OFFSET	-8.79432	-3.21518	-0.64796
		CHANNELS 3  Xrotation Yrotation Zrotation
		JOINT LeftLeg
		{
			OFFSET	-1.93242	-37.8649	-0.591911
			CHANNELS 3  Xrotation Yrotation Zrotation
			JOINT LeftFoot
			{
				OFFSET	-1.8889	-34.8184	2.99439
				CHANNELS 3  Xrotation Yrotation Zrotation
				JOINT LeftToeBase
				{
					OFFSET	0	-4.3392	-11.5249
					CHANNELS 3  Xrotation Yrotation Zrotation
					End Site
					{
						OFFSET	0	-1.73568	-6.94272
					}
				}
			}
		}
	}
	JOINT RightUpLeg
	{
		OFFSET	8.79432	-3.21518	-0.64796
		CHANNELS 3  Xrotation Yrotation Zrotation
		JOINT RightLeg
		{
			OFFSET	1.93242	-37.8649	-0.591911
			CHANNELS 3  Xrotation Yrotation Zrotation
			JOINT RightFoot
			{
				OFFSET	1.8889	-34.8184	2.99439
				CHANNELS 3  Xrotation Yrotation Zrotation
				JOINT RightToeBase
				{
					OFFSET	0	-4.3392	-11.5249
					CHANNELS 3  Xrotation Yrotation Zrotation
					End Site
					{
						OFFSET	0	-1.73568	-6.94272
					}
				}
			}
		}
	}
}
MOTION
Frames: 20
Frame Time: 0.020408
 192.004 84.2789 -280.658 102.093 48.2623 -143.275 180 180 -171.483 163.101 179.999 -165.805 164.561 179.998 -165.805 173.116 180 -171.483 164.16 -179.225 -177.269 150.707 177.169 164.893 171.18 172.606 177.354 1.10642 -28.7517 2.40305 90.4202 -125.209 177.605 174.024 -169.861 177.403 -0 -12.7479 5.19964 172.531 -174.509 -166.147 33.7044 74.1389 -92.6711 117.751 158.743 -142.414 -0 -94.874 46.9716 150.306 -159.676 -131.512 42.3194 177.295 179.896 40.357 0.0168784 -3.80339 0.132086 0 0 138.715 178.202 -143.235 10.6137 -21.3078 -0.27568 160.918 -179.975 171.597 4.43856 0 0
 191.968 83.8312 -280.163 106.197 52.8022 -148.797 0.00479696 -0.0314725 8.6662 163.001 -179.938 -165.556 164.456 -179.815 -165.556 172.933 -179.969 -171.334 164.379 -179.222 -177.218 151.436 177.019 166.101 171.39 172.116 177.721 1.49646 -28.6676 3.25088 90.7994 -126.634 174.931 174.138 -167.931 177.014 -0 -14.5545 5.12514 171.89 -172.527 -165.256 30.0066 76.3501 -92.349 117.279 160.392 -143.215 -0 -94.2058 48.6017 151.265 -163.24 -135.731 40.1548 177.106 179.825 37.9417 0.0283786 -3.59288 0.147584 0 0 141.441 176.637 -139.321 11.4727 -22.5367 -0.227063 166.084 -179.976 171.826 4.44242 0 0
 190.256 84.8679 -280.563 109.76 54.7453 -152.95 179.999 179.995 -170.988 162.953 179.989 -164.98 164.078 179.968 -164.98 172.029 179.995 -170.988 166.421 -179.294 -177.08 157.123 178.51 165.735 173.165 172.281 177.43 1.31492 -28.1 2.85674 91.1456 -128.56 174.24 174.294 -166.545 177.054 -0 -16.0487 5.13097 172.166 -169.446 -166.33 33.0181 78.1734 -99.3911 116.787 161.575 -143.73 -0 -93.6775 49.9006 152.006 -167.364 -137.329 37.4063 177.013 -179.949 34.8318 0.0619748 -3.13649 0.15875 0 0 142.632 176.119 -139 10.3199 -22.9917 -0.39263 167.701 -179.918 171.933 4.45043 0 0
 190.882 84.3288 -281.322 111.033 56.1191 -152.868 0.00123568 -0.0077061 9.10985 162.425 -179.985 -164.817 163.847 -179.955 -164.817 172.523 -179.992 -170.89 164.265 -179.176 -177.077 151.608 176.82 164.215 171.439 171.351 177.358 1.04202 -28.7394 2.26314 91.6651 -130.539 173.251 174.473 -164.763 176.823 -0 -17.4912 5.07484 172.556 -166.821 -167.514 33.5966 81.5582 -103.493 115.74 162.127 -143.981 -0 -93.1011 51.2279 152.5 -171.73 -137.305 35.9485 177.071 -179.781 31.8903 0.00334058 -2.65739 0.166059 0 0 144.563 174.622 -139.459 10.9742 -22.9422 -0.542978 173.283 -179.908 171.997 4.4557 0 0
 188.076 84.6983 -281.862 106.709 55.8921 -147.84 179.999 179.992 -170.653 161.951 179.985 -164.422 163.254 179.955 -164.422 171.904 179.992 -170.653 164.824 -179.184 -176.993 153.527 177.677 162.481 172.066 171.628 176.812 0.639302 -28.7598 1.3883 92.1546 -132.041 173.336 174.731 -163.179 176.85 -0 -18.7505 5.04292 172.893 -164.622 -168.498 25.5647 85.2587 -98.5171 114.477 162.547 -142.986 -0 -92.9524 52.6564 153.131 -176.613 -136.539 34.6293 177.052 -179.704 31.4086 0.032789 -2.11787 0.174593 0 0 144.722 175.175 -142.094 9.75461 -22.7102 -0.0146401 177.073 179.992 172.113 4.46609 0 0
 185.422 85.0572 -281.969 103.35 55.3273 -144.315 179.999 179.996 -170.45 161.575 179.992 -164.084 162.729 179.976 -164.084 171.193 179.996 -170.45 165.772 -179.217 -176.914 156.446 178.946 162.223 173.007 172.301 176.547 0.394766 -28.2536 0.857372 91.6067 -132.684 174.095 175.012 -161.595 176.72 -0 -19.5869 5.18185 173.558 -163.529 -169.789 173.312 91.8794 112.48 113.423 163.169 -142.425 -0 -92.604 53.9682 153.353 179.37 -135.025 33.6077 176.633 -179.631 32.013 -0.0157151 -1.74421 0.182005 0 0 143.092 176.47 -144.004 8.01335 -22.1034 -0.246911 178.431 179.877 171.775 4.47865 0 0
 182.965 85.8188 -281.405 99.6369 54.6127 -141.751 0.00160993 -0.009425 9.69342 161.298 -179.982 -163.844 162.288 -179.945 -163.844 170.47 -179.991 -170.307 166.925 -179.268 -176.853 159.854 -179.87 162.408 174.088 172.639 176.423 0.411373 -27.1258 0.893529 91.0153 -131.9 175.288 175.311 -159.317 176.583 -0 -20.3072 5.44231 174.657 -163.412 -171.582 78.0615 91.539 -152.92 112.386 163.526 -142.484 -0 -91.9872 55.088 153.649 177.523 -136.967 34.0819 176.352 -179.763 32.204 -0.11532 -1.55595 0.189318 0 0 140.76 177.993 -144.403 5.15698 -21.4552 -0.214201 178.877 179.934 171.602 4.4854 0 0
 181.934 85.8873 -280.841 98.9611 54.3207 -142.732 0.00077515 -0.00450909 9.75428 161.056 -179.991 -163.743 162.02 -179.974 -163.743 170.246 -179.995 -170.246 166.993 -179.267 -176.832 160.244 -179.625 162.243 174.218 172.805 176.344 0.276404 -27.1416 0.600356 91.643 -131.655 175.166 175.686 -157.506 176.545 -0 -20.7302 5.25426 175.707 -163.716 -173.222 84.2028 93.6285 -157.372 112.23 164.448 -143.483 -0 -91.3132 55.7612 152.759 177.104 -139.775 34.8307 176.513 -179.789 34.5385 -0.0715794 -1.35351 0.198493 0 0 137.892 179.095 -143.936 2.15564 -20.2373 -0.243363 4.05432 -0.000973896 -8.60622 4.48672 0 0
 180.193 85.7375 -280.749 97.4242 53.6984 -141.777 179.998 179.989 -170.239 160.821 179.978 -163.732 161.755 179.935 -163.732 170.057 179.989 -170.239 167.001 -179.267 -176.83 160.474 -179.47 162.284 174.293 172.985 176.322 179.92 -152.873 179.825 92.4234 -131.635 174.964 176.087 -155.963 176.739 -0 -21.1099 5.01485 176.756 -164.025 -174.863 85.7257 94.4646 -158.141 111.971 165.111 -144.073 -0 -90.7422 56.3802 151.715 177.383 -139.981 36.3328 176.731 179.834 38.0453 -0.0315947 -1.19897 0.207122 0 0 135.23 179.742 -144.725 179.754 -161.113 179.47 8.65753 -0.0344517 -8.9561 4.47979 0 0
 179.339 85.5548 -280.528 96.671 53.9168 -142.018 179.999 179.992 -170.209 160.64 179.984 -163.681 161.608 179.952 -163.681 170.027 179.992 -170.209 166.728 -179.25 -176.824 159.897 -179.561 162.343 174.111 173.185 176.334 0.0274602 -27.2223 0.0596437 92.6439 -131.05 174.471 176.427 -155.395 176.948 -0 -21.2048 5.02677 178.303 -164.675 -177.29 76.4361 93.0969 -148.753 111.329 165.619 -143.861 -0 -90.0595 57.2155 150.334 179.077 -141.801 38.3801 177.338 179.31 39.9615 -0.0394104 -1.12939 0.215694 0 0 133.29 179.427 -144.118 177.806 -162.844 179.635 12.0267 -0.0205801 -9.41877 4.46472 0 0
 178.521 85.8583 -280.726 96.0245 54.4545 -141.285 8.82871e-05 -0.000511049 9.80148 160.523 -179.999 -163.664 161.597 -179.997 -163.664 170.235 -179.999 -170.199 166.016 -179.21 -176.83 158.059 -179.998 162.223 173.536 173.392 176.34 179.767 -153.02 179.494 92.999 -130.907 174.215 176.746 -155.373 176.971 -0 -21.108 5.1562 179.035 -164.929 -178.454 90.173 93.1168 -161.455 111.172 166.22 -144.5 -0 -89.4491 57.6852 148.788 -178.813 -142.19 39.9545 178.313 179.393 40.4602 -0.00337354 -1.01374 0.2255 0 0 132.147 178.594 -144.372 176.972 -164.507 179.394 11.8197 -0.0976439 -10.0326 4.44748 0 0
 177.713 85.9577 -280.819 93.7621 54.5383 -137.758 0.000696859 -0.00405475 9.75173 160.454 -179.992 -163.747 161.638 -179.976 -163.747 170.507 -179.996 -170.248 165.248 -179.171 -176.857 156.038 179.552 162.391 172.9 173.789 176.392 179.411 -152.609 178.721 93.3307 -130.777 172.966 177.146 -154.554 177.169 -0 -21.0886 5.19112 179.738 -165.384 -179.578 99.8132 93.6271 -169.903 111.159 166.762 -145.546 -0 -88.8357 58.0057 145.987 -175.075 -141.278 40.8839 179.871 179.446 40.7336 0.0328219 -0.783351 0.235743 0 0 132.075 177.636 -145.251 177.304 -165.815 179.578 10.7758 -0.144132 -10.5248 4.41877 0 0
 176.842 86.2013 -281.66 90.8609 54.9511 -132.2 179.998 179.988 -170.406 160.418 179.977 -164.01 161.67 179.932 -164.01 170.744 179.988 -170.406 164.639 -179.152 -176.916 154.405 179.215 162.519 172.389 174.141 176.418 178.693 -153.138 177.16 93.4692 -130.338 172.757 177.571 -153.451 177.37 -0 -21.1231 5.26963 0.472769 -14.3298 -0.766237 105.527 94.225 -174.521 111.151 167.177 -146.501 -0 -88.3072 58.2453 143.119 -171.221 -139.227 40.9571 -178.635 179.638 40.6426 0.0562704 -0.536587 0.244518 0 0 132.209 176.623 -147.691 178.047 -167.016 179.585 9.45385 -0.0290694 -11.0173 4.39072 0 0
 175.347 85.9102 -282.317 87.6834 54.3509 -126.85 0.00385116 -0.0229061 9.54379 160.42 -179.955 -164.094 161.748 -179.866 -164.094 170.849 -179.977 -170.456 164.376 -179.142 -176.936 153.704 179.151 162.55 172.172 174.443 176.399 177.839 -153.599 175.302 93.7459 -130.2 172.834 178.156 -152.628 177.516 -0 -20.9387 5.20428 0.912399 -14.278 -1.48022 106.408 94.2528 -175.068 111.093 167.365 -146.895 -0 -87.8633 58.4214 141.704 -168.344 -141.152 39.145 -175.598 179.563 39.7563 -0.0738913 0.193722 0.242926 0 0 131.409 176.596 -150.231 178.624 -167.852 179.736 11.3037 0.00213548 -11.4016 4.35375 0 0
 173.081 85.4355 -282.618 87.3822 52.9232 -124.944 0.00380672 -0.0228714 9.44969 160.392 -179.955 -164.251 161.768 -179.866 -164.25 170.974 -179.977 -170.55 164.032 -179.133 -176.972 152.787 179.159 162.436 171.892 174.982 176.308 177.43 -155.671 174.419 94.43 -128.622 174.415 178.904 -151.285 177.688 -0 -20.8067 5.01735 1.26268 -14.3957 -2.0452 106.127 94.3997 -174.491 111.172 167.644 -147.322 -0 -87.4954 58.5446 140.826 -167.174 -143.612 37.6511 -172.279 -179.946 40.4211 -0.00784591 1.08982 0.244772 0 0 130.003 177.194 -152.816 178.292 -168.537 179.595 13.6736 0.0228483 -11.5114 4.31476 0 0
 170.924 85.1647 -283.163 86.7339 50.485 -123.156 0.00164536 -0.00999206 9.35081 160.313 -179.98 -164.415 161.724 -179.941 -164.415 171.074 -179.99 -170.649 163.657 -179.122 -177.009 151.832 179.11 162.556 171.596 175.479 176.281 176.988 -156.894 173.463 95.5665 -127.399 175.294 179.609 -150.375 177.935 -0 -20.6456 4.74815 1.3513 -14.3064 -2.19194 101.564 93.967 -170.344 111.08 167.685 -147.373 -0 -87.193 58.7038 140.183 -167.423 -144.833 36.2302 -168.972 -179.639 40.4072 0.0779388 2.08225 0.249947 0 0 128.223 178.104 -155.729 177.876 -168.978 179.7 13.8982 -0.00104057 -11.4886 4.27769 0 0
 169.747 84.973 -283.628 85.868 49.2053 -120.745 0.00040561 -0.00251563 9.1593 160.313 -179.995 -164.735 161.746 -179.985 -164.735 171.164 -179.997 -170.841 163.451 -179.13 -177.073 151.269 179.222 162.532 171.426 176.033 176.197 176.078 -156.817 171.477 97.3873 -127.138 175.187 0.247577 -30.7687 -1.73807 -0 -20.3833 4.49802 1.33931 -13.9625 -2.18406 91.1157 93.142 -160.315 110.943 167.704 -146.962 -0 -86.9615 58.879 138.884 -167.856 -146.693 36.0767 -165.675 179.893 40.2298 0.0921977 3.11333 0.256098 0 0 127.008 178.681 -158.113 177.711 -169.305 179.789 13.6951 0.0287883 -11.4756 4.23552 0 0
 169.613 84.6991 -283.85 86.4998 49.1086 -120.16 0.000690065 -0.00440059 8.91208 160.314 -179.991 -165.147 161.754 -179.974 -165.147 171.18 -179.996 -171.088 163.415 -179.151 -177.153 151.171 179.498 162.447 171.402 176.626 176.083 175.789 -157.056 170.848 98.5826 -125.83 175.162 0.896277 -31.3849 -1.10593 -0 -20.1006 4.31382 1.32742 -13.1715 -2.19078 75.1559 92.057 -143.891 110.616 167.764 -146.417 -0 -86.6457 59.1846 137.4 -168.606 -148.843 36.9878 -165.627 179.712 39.7914 -0.00214443 4.12384 0.261598 0 0 126.302 178.837 -159.954 177.299 -169.618 -179.967 14.17 0.0283147 -11.4401 4.19378 0 0
 168.862 84.2098 -284.088 87.2536 48.9414 -119.524 180 179.999 -171.403 160.284 179.998 -165.671 161.716 179.995 -165.671 171.156 179.999 -171.403 163.415 -179.181 -177.254 151.198 179.886 162.338 171.417 177.359 175.94 175.295 -157.536 169.77 99.8119 -124.729 175.619 1.54839 -31.7 -0.905488 -0 -19.7908 4.08828 1.31411 -12.5265 -2.18956 45.3386 90.9006 -113.705 110.305 167.787 -145.975 -0 -86.3451 59.4533 136.07 -169.883 -150.777 38.5015 -165.639 179.962 39.8644 -0.0390521 5.03958 0.265974 0 0 126.535 178.672 -161.425 177.203 -169.936 -179.896 16.4613 0.0334228 -11.3759 4.15269 0 0
 168.369 83.849 -283.936 86.5149 48.9095 -117.177 180 180 -171.778 160.237 180 -166.296 161.668 180 -166.296 171.116 180 -171.778 163.419 -179.217 -177.373 151.258 -179.691 162.53 171.439 178.187 175.858 174.987 -156.965 169.085 100.608 -123.719 174.937 2.20509 -31.8634 -0.44384 -0 -19.4024 3.93233 1.34957 -11.6678 -2.27668 151.185 89.2942 140.143 109.985 167.805 -145.655 -0 -86.0259 59.7416 134.338 -170.81 -152.426 39.3823 -165.699 179.844 40.0445 -0.0247856 5.96404 0.269127 0 0 126.877 178.269 -162.171 176.916 -170.469 179.914 18.1246 0.074028 -11.4177 4.10971 0 0
